<svg xmlns="http://www.w3.org/2000/svg" viewBox="0 0 565.87 638.01"><title>honeycomb</title><g data-name="Warstwa 2"><g data-name="Layer 1"><path d="M121.72,250.93,65.46,235.86,50.39,179.6l41.18-41.18,56.25,15.08,15.08,56.25ZM70.93,230.39l48.78,13.07,35.71-35.71L142.35,159,93.57,145.9l-35.7,35.71Z" style="fill:#808a9f"/><path d="M212.55,227.72,156.3,212.64l-15.07-56.25,41.18-41.18,56.25,15.07,15.08,56.26Zm-50.78-20.55,48.78,13.07,35.71-35.71-13.07-48.78-48.78-13.07L148.7,158.39Z" style="fill:#808a9f"/><path d="M203.06,569.43,146.8,554.35,131.73,498.1l41.18-41.18L229.16,472l15.08,56.26Zm-50.79-20.55L201.05,562l35.71-35.71-13.07-48.78-48.78-13.07-35.7,35.71Z" style="fill:#808a9f"/><path d="M343.39,362.59l-56.25-15.07-15.07-56.25,41.18-41.19,56.25,15.08,15.07,56.25Zm-50.78-20.54,48.78,13.07,35.71-35.71L364,270.63l-48.78-13.07-35.71,35.71Z" style="fill:#808a9f"/><path d="M277.86,295.1,221.61,280l-15.07-56.26,41.18-41.18L304,197.67,319,253.92Zm-50.78-20.55,48.78,13.08,35.71-35.71L298.5,203.14l-48.78-13.07L214,225.77Z" style="fill:#808a9f"/><path d="M368.54,272.15l-56.25-15.08-15.08-56.25,41.18-41.18,56.26,15.07L409.72,231ZM317.76,251.6l48.78,13.07L402.24,229l-13.07-48.78-48.78-13.07-35.7,35.71Z" style="fill:#808a9f"/><path d="M71.33,432.47,15.07,417.39,0,361.14,41.18,320,97.43,335l15.08,56.26ZM20.54,411.92,69.33,425l35.7-35.7L92,340.5,43.18,327.43,7.47,363.14Z" style="fill:#808a9f"/><path d="M294.05,545.18,237.8,530.11l-15.07-56.25,41.18-41.18,56.25,15.07L335.24,504Zm-50.78-20.54,48.78,13.07L327.76,502l-13.07-48.78-48.78-13.07L230.2,475.86Z" style="fill:#808a9f"/><path d="M228.53,477.69l-56.26-15.07L157.2,406.36l41.18-41.18,56.25,15.08,15.08,56.25Zm-50.79-20.54,48.78,13.07,35.71-35.71-13.07-48.78-48.78-13.07-35.71,35.71Z" style="fill:#808a9f"/><path d="M319.2,454.74,263,439.66l-15.08-56.25,41.18-41.18,56.26,15.07,15.07,56.26Zm-50.78-20.55,48.78,13.07,35.71-35.71-13.07-48.78-48.78-13.06-35.71,35.7Z" style="fill:#808a9f"/><path d="M269.76,638,213.5,622.94l-15.07-56.25,41.18-41.19,56.25,15.08,15.08,56.25ZM219,617.47l48.78,13.07,35.71-35.71-13.07-48.78L241.61,533,205.9,568.69Z" style="fill:#808a9f"/><path d="M434,340.32l-56.25-15.07L362.68,269l41.19-41.19,56.25,15.08,15.07,56.25Zm-50.78-20.54L432,332.85l35.71-35.71-13.07-48.78-48.78-13.07L370.16,271Z" style="fill:#808a9f"/><path d="M524.68,317.37,468.43,302.3,453.36,246l41.18-41.18,56.25,15.08,15.08,56.25ZM473.9,296.83l48.78,13.06,35.71-35.7-13.07-48.78-48.78-13.07L460.83,248Z" style="fill:#808a9f"/><path d="M409,430.26l-56.25-15.08-15.08-56.25,41.18-41.18,56.26,15.07,15.07,56.26ZM358.2,409.71,407,422.78l35.71-35.71-13.07-48.78-48.78-13.07-35.71,35.71Z" style="fill:#808a9f"/><path d="M188.16,317.37,131.9,302.3,116.83,246,158,204.86l56.25,15.08,15.08,56.25Zm-50.79-20.54,48.78,13.06,35.71-35.7-13.07-48.78L160,212.34,124.3,248Z" style="fill:#808a9f"/><path d="M330.85,112.51,274.59,97.43,259.52,41.18,300.7,0,357,15.07,372,71.33ZM280.06,92,328.84,105l35.71-35.7L351.48,20.54,302.7,7.47,267,43.18Z" style="fill:#808a9f"/><path d="M498.63,409.14l-56.25-15.08L427.3,337.81l41.19-41.18,56.25,15.07L539.81,368Zm-50.78-20.55,48.78,13.07L532.34,366l-13.07-48.78L470.49,304.1l-35.71,35.71Z" style="fill:#808a9f"/><path d="M473.67,499.79l-56.26-15.08-15.07-56.25,41.18-41.18,56.25,15.07,15.08,56.26Zm-50.79-20.55,48.78,13.07,35.71-35.7L494.3,407.83l-48.78-13.07-35.71,35.7Z" style="fill:#808a9f"/></g></g></svg>