<svg xmlns="http://www.w3.org/2000/svg" viewBox="0 0 30.946 1.326" preserveAspectRatio="none">
  <path fill="#e81f76" d="M30.795 1.326c-.575 0-1.091-.128-1.592-.252-.5-.124-.971-.241-1.5-.241-.388 0-.684-.013-.959-.04-.222-.018-.45-.042-.678-.066-.834-.091-1.622-.174-2.318.06-1.428.478-2.9.418-4.151.294-.234-.023-.469-.05-.705-.076-1.13-.127-2.298-.259-3.393-.038-.805.162-2.24-.041-3.106-.32-.844-.276-1.428-.11-2.169.104-.376.107-.765.22-1.229.285-.522.069-1.042.017-1.543-.036C7.049.957 6.667.917 6.286.938c-.21.011-.414.027-.616.043-.838.067-1.629.131-2.517-.163-.502-.166-1.081-.163-1.674.01-.174.051-.34.125-.505.199-.287.128-.584.261-.929.291L.001.82C.263.797.51.687.77.57c.181-.08.368-.164.57-.223.691-.199 1.372-.2 1.97-.004.792.262 1.534.202 2.32.14.206-.017.414-.033.628-.045.423-.022.841.022 1.246.065.493.053.959.104 1.421.037.429-.06.801-.167 1.161-.27.757-.219 1.473-.425 2.461-.099.81.262 2.151.445 2.854.306C16.572.24 17.78.376 18.949.508c.234.026.467.053.698.075 1.198.119 2.604.177 3.943-.271.799-.268 1.679-.174 2.53-.082.223.023.447.048.669.065.263.026.544.038.914.038.59 0 1.114.13 1.62.256.533.132 1.04.254 1.602.234l.02.5a3.84 3.84 0 0 1-.151.003Z"/>
</svg>