<svg id="OBJECTS" xmlns="http://www.w3.org/2000/svg" xmlns:xlink="http://www.w3.org/1999/xlink" viewBox="0 0 500 359.34"><defs><style>.cls-1{fill:#fffffa;}.cls-2{fill:#e5ccd5;}.cls-3{fill:#3065b0;}.cls-4{fill:#231f20;opacity:0.2;}.cls-5{fill:#343c76;}.cls-6{fill:#fff;}.cls-7{fill:#7b3f98;}.cls-8{fill:#f0e3e7;}.cls-9{fill:#dc88a0;}.cls-10{fill:#000100;opacity:0.1;}.cls-11{fill:#94266f;}.cls-12,.cls-16,.cls-20{fill:none;stroke-miterlimit:10;}.cls-12{stroke:#94266f;}.cls-13{fill:#919191;}.cls-14{fill:#fcb538;}.cls-15{fill:#fbbe33;}.cls-16,.cls-20{stroke:#000;}.cls-17{fill:#faaa94;}.cls-18{fill:#f35e4b;}.cls-19{fill:#d99481;}.cls-20{stroke-width:0.5px;}.cls-21{clip-path:url(#clip-path);}</style><clipPath id="clip-path"><polygon class="cls-1" points="126.35 257.71 118.93 257.71 102.9 316.01 142.37 316.01 126.35 257.71"/></clipPath></defs><path class="cls-2" d="M493.67,81.42l1.59,107.84c.49,33.14-4.16,67.07-9,99.94-2.14,14.41-5,29.63-14.87,40.35-7.67,8.34-18.66,12.85-29.68,15.48-15.73,3.77-32.05,4.21-48.22,4.63-118.75,3.09-237.57,6.18-356.3,2.7-11.71-.35-26.06-2.56-30-13.58C0,319,28.87,296.85,43.86,290.07c18.14-8.21,38.54-9.89,58.45-9.55,13,.22,26.67,1.15,38.57-4.21,13.88-6.24,22.78-19.82,30.42-33,8.83-15.19,17.34-27.85,31.19-38.8,13.19-10.42,28-19,44-24.11,15.25-4.87,31.31-6.59,46.84-10.5s31.11-10.46,41.41-22.71c8.19-9.76,13.45-21.89,21-32.23a240.67,240.67,0,0,1,91.2-75.88c6.87-3.26,14.09-6.24,21.69-6.53s15.72,2.57,19.94,8.9c2.84,4.27,3.63,9.56,4.1,14.66C493.42,64.54,493.54,73,493.67,81.42Z"/><path class="cls-3" d="M210.67,247.87s34.86,3.75,54.41,27.6,16.38,58.77,16.38,58.77-34.86-3.75-54.41-27.6S210.67,247.87,210.67,247.87Z"/><path class="cls-4" d="M281.46,334.24s-34.86-3.75-54.41-27.6-16.38-58.77-16.38-58.77"/><path class="cls-5" d="M281.81,333.89l-5.91-7.21-14.19-17.32-17.19-21-14.87-18.14-4.91-6a24.27,24.27,0,0,0-2.36-2.88.58.58,0,0,1-.1-.12c-.41-.5-1.11.21-.71.71l5.91,7.21,14.2,17.32,17.19,21,14.87,18.15,4.91,6a24.17,24.17,0,0,0,2.36,2.87l.1.12c.4.5,1.11-.21.7-.7Z"/><path class="cls-5" d="M260.74,308.47,240,306.41l-3-.3c-.64-.06-.63.94,0,1l20.79,2.06,3,.3c.64.06.64-.94,0-1Z"/><path class="cls-5" d="M244.6,288.78l-20.78-2.06-3-.3c-.64-.06-.63.94,0,1l20.79,2.06,3,.3c.64.06.64-.94,0-1Z"/><path class="cls-5" d="M246.46,265.5l-2.06,20.79-.3,3c-.06.64.94.63,1,0l2.06-20.79.3-3c.06-.64-.94-.64-1,0Z"/><path class="cls-5" d="M262.6,285.19,260.54,306l-.3,3c-.06.64.94.63,1,0l2.06-20.79.3-3c.06-.64-.94-.64-1,0Z"/><path class="cls-3" d="M433.19,122.08s1.21,35-19.65,57.76-55.87,24.5-55.87,24.5-1.21-35,19.65-57.76S433.19,122.08,433.19,122.08Z"/><path class="cls-4" d="M357.67,204.34s-1.21-35,19.65-57.76,55.87-24.5,55.87-24.5"/><path class="cls-5" d="M358,204.7l6.31-6.87,15.14-16.5,18.33-20,15.87-17.28,5.24-5.71a32.34,32.34,0,0,0,2.51-2.73l.11-.12c.43-.47-.27-1.18-.71-.71l-6.3,6.87-15.15,16.5-18.33,20-15.87,17.28-5.24,5.71a34.1,34.1,0,0,0-2.51,2.73l-.11.12c-.43.47.27,1.18.71.71Z"/><path class="cls-5" d="M380.27,180.27l-.9-20.87-.12-3c0-.64-1-.65-1,0l.89,20.87.13,3c0,.64,1,.65,1,0Z"/><path class="cls-5" d="M397.48,161.52l-.89-20.87-.13-3c0-.64-1-.64-1,0l.9,20.87.12,3c0,.64,1,.64,1,0Z"/><path class="cls-5" d="M420.86,160l-20.87.89-3,.13c-.64,0-.64,1,0,1l20.87-.89,3-.13c.64,0,.64-1,0-1Z"/><path class="cls-5" d="M403.64,178.75l-20.87.89-3,.13c-.64,0-.65,1,0,1l20.87-.89,3-.13c.64,0,.65-1,0-1Z"/><path class="cls-3" d="M375.6,114.79s12.38,20,7.77,40.24-24.44,32.91-24.44,32.91-12.38-20.05-7.77-40.25S375.6,114.79,375.6,114.79Z"/><path class="cls-4" d="M358.93,187.94s-12.38-20.05-7.77-40.25,24.44-32.9,24.44-32.9"/><path class="cls-5" d="M359.41,188.07l4.74-20.81,7.56-33.14,1.72-7.56c.14-.63-.82-.9-1-.27l-4.75,20.82-7.55,33.14-1.72,7.56c-.15.62.82.89,1,.26Z"/><path class="cls-5" d="M364.24,166.28l-7.5-11.92-1.05-1.67c-.34-.54-1.21,0-.86.5l7.49,11.93,1.05,1.67c.35.54,1.21,0,.87-.51Z"/><path class="cls-5" d="M368,149.6l-7.5-11.92L359.49,136c-.34-.54-1.2,0-.86.51l7.5,11.92,1.05,1.67c.34.54,1.2,0,.86-.51Z"/><path class="cls-5" d="M381,140.88,369,148.37l-1.67,1c-.55.35-.05,1.21.5.87l11.92-7.5,1.67-1c.55-.34,0-1.21-.5-.86Z"/><path class="cls-5" d="M377.15,157.56l-11.92,7.49-1.68,1c-.54.34,0,1.21.51.87l11.92-7.5,1.67-1.05c.54-.34,0-1.21-.5-.86Z"/><path class="cls-3" d="M306,225.19s22.88,28.84,19.45,61-31.88,55.56-31.88,55.56-22.89-28.84-19.46-61S306,225.19,306,225.19Z"/><path class="cls-4" d="M293.6,341.78s-22.89-28.84-19.46-61S306,225.19,306,225.19"/><path class="cls-5" d="M294.1,341.78l1-9.74,2.49-23.39,3-28.31,2.61-24.49.86-8.11a26.07,26.07,0,0,0,.41-3.83,1.11,1.11,0,0,1,0-.17c.07-.64-.93-.63-1,0l-1,9.74L300,276.87l-3,28.31-2.61,24.49-.86,8.11a26.07,26.07,0,0,0-.41,3.83,1.11,1.11,0,0,1,0,.17c-.07.64.93.63,1,0Z"/><path class="cls-5" d="M297.59,307.31l-13.8-17.1-2-2.42c-.4-.5-1.11.21-.71.71l13.81,17.1,1.95,2.42c.41.5,1.11-.21.71-.71Z"/><path class="cls-5" d="M300.42,280.73l-13.8-17.1-2-2.42c-.4-.5-1.11.21-.7.71l13.8,17.1,2,2.42c.4.5,1.1-.21.7-.71Z"/><path class="cls-5" d="M319.24,265l-17.1,13.81-2.42,2c-.5.41.21,1.11.7.71l17.1-13.81,2.42-1.95c.51-.41-.21-1.11-.7-.71Z"/><path class="cls-5" d="M316.4,291.55l-17.09,13.81-2.43,1.95c-.5.41.21,1.11.71.71l17.1-13.81,2.42-1.95c.5-.41-.21-1.11-.71-.71Z"/><path class="cls-6" d="M334.18,79.5a7.34,7.34,0,1,1-7.34-7.34A7.34,7.34,0,0,1,334.18,79.5Z"/><path class="cls-6" d="M350.92,76.11A10.73,10.73,0,1,1,340.2,65.39,10.72,10.72,0,0,1,350.92,76.11Z"/><circle class="cls-6" cx="388.92" cy="76.11" r="10.72"/><circle class="cls-6" cx="380.08" cy="65.39" r="10.72"/><circle class="cls-6" cx="360.33" cy="69.89" r="16.95" transform="translate(0.68 143.21) rotate(-22.5)"/><polygon class="cls-6" points="326.84 86.83 388.92 86.83 388.92 75.36 360.32 66.52 325.14 81.38 326.84 86.83"/><path class="cls-6" d="M238.18,128.52a5.68,5.68,0,1,0,5.68-5.68A5.68,5.68,0,0,0,238.18,128.52Z"/><path class="cls-6" d="M225.21,125.9a8.31,8.31,0,1,0,8.3-8.31A8.31,8.31,0,0,0,225.21,125.9Z"/><path class="cls-6" d="M187.46,125.9a8.31,8.31,0,1,0,8.31-8.31A8.31,8.31,0,0,0,187.46,125.9Z"/><path class="cls-6" d="M194.31,117.59a8.31,8.31,0,1,0,8.31-8.31A8.31,8.31,0,0,0,194.31,117.59Z"/><circle class="cls-6" cx="217.92" cy="121.07" r="13.13"/><polygon class="cls-6" points="243.86 134.2 195.77 134.2 195.77 125.31 217.92 118.46 245.17 129.98 243.86 134.2"/><rect class="cls-1" x="241.3" y="174.87" width="179.31" height="121.41" rx="9"/><path class="cls-7" d="M250.3,169.41H411.61a9,9,0,0,1,9,9V280.07a0,0,0,0,1,0,0H241.3a0,0,0,0,1,0,0V178.41A9,9,0,0,1,250.3,169.41Z"/><rect class="cls-8" x="249.57" y="177.68" width="162.77" height="93.23"/><rect class="cls-9" x="310.77" y="296.28" width="40.36" height="21.83"/><rect class="cls-1" x="295.22" y="318.12" width="71.46" height="5.95"/><path class="cls-9" d="M334.76,287.85A3.81,3.81,0,1,1,331,284,3.8,3.8,0,0,1,334.76,287.85Z"/><polygon class="cls-10" points="351.13 305.54 310.77 311.5 310.77 296.28 351.13 296.28 351.13 305.54"/><rect class="cls-11" x="249.57" y="177.68" width="162.77" height="3.8"/><path class="cls-9" d="M253.84,179.58a1.05,1.05,0,1,1-1.05-1A1,1,0,0,1,253.84,179.58Z"/><path class="cls-9" d="M257.56,179.58a1.05,1.05,0,1,1-1.05-1A1,1,0,0,1,257.56,179.58Z"/><path class="cls-9" d="M261.28,179.58a1,1,0,1,1-2.09,0,1,1,0,0,1,2.09,0Z"/><rect class="cls-11" x="256.99" y="188.87" width="103.92" height="17.5"/><rect class="cls-9" x="256.99" y="213" width="103.92" height="49.53"/><rect class="cls-9" x="368.01" y="188.87" width="36.1" height="73.67"/><polygon class="cls-12" points="259.89 67.9 226.14 162.94 293.64 162.94 259.89 67.9"/><line class="cls-12" x1="259.8" y1="0.36" x2="259.8" y2="60.7"/><path class="cls-13" d="M261.91,66.15a3.82,3.82,0,0,1-1.85-.22,2.61,2.61,0,0,1-1.33-1.07,2.75,2.75,0,0,1-.11-2.31c.5-1.44,1.76-1.94,3-2.65.7-.42.73-1.49.76-2.2,0-1.14.13-2.26.07-3.39-.08-1.31-1.4-.85-2.28-.87s-1.82,0-2.73.09c.4,0-.78,3.44-.86,3.68-1,2.78-2.64,5.51-2.46,8.56a4.93,4.93,0,0,0,3.79,4.86,11.75,11.75,0,0,0,4.22.18c2.77-.46,3.52-3,3.66-5.48,0-.39,0-1.07-.51-1.14s-.53.32-.75.58A4.25,4.25,0,0,1,261.91,66.15Z"/><path class="cls-13" d="M261.85,56.83h-4.24a2.22,2.22,0,0,1-2.21-2.22h0a2.22,2.22,0,0,1,2.21-2.21h4.24a2.22,2.22,0,0,1,2.21,2.21h0A2.22,2.22,0,0,1,261.85,56.83Z"/><rect class="cls-14" x="254.02" y="42.02" width="11.41" height="12.6" rx="2"/><rect class="cls-15" x="200.73" y="155.8" width="124.24" height="49.38" rx="5" transform="translate(-28.98 52.03) rotate(-10.72)"/><rect class="cls-16" x="203.4" y="158.27" width="118.9" height="44.44" rx="5" transform="translate(-28.98 52.03) rotate(-10.72)"/><path d="M171.47,280.24a12.57,12.57,0,0,0,1.39-.21,7.8,7.8,0,0,1,1,.11,10.75,10.75,0,0,0,2.47-.13,10.57,10.57,0,0,0,4.49-1.85,3.63,3.63,0,0,0,1-1c.65-1.11.19-2.61.84-3.72a16.39,16.39,0,0,1,1.08-1.29,3.49,3.49,0,0,0,.56-2.32,6.43,6.43,0,0,0-4.13-5.46,4.21,4.21,0,0,0-5,1.6,9.42,9.42,0,0,1-1.22,2c-.69.66-1.68.67-2.43,1.22a3.32,3.32,0,0,0-1.52,2.21,5.19,5.19,0,0,1-.27,1.58,4.68,4.68,0,0,1-.91,1,3.71,3.71,0,0,0,2.6,6.27Z"/><path class="cls-11" d="M180.75,323.07a1,1,0,0,1,.36.07.33.33,0,0,1,.2.28.36.36,0,0,1-.08.19,1.17,1.17,0,0,1-1,.29l-4-.1a.35.35,0,0,1-.32-.16,1.73,1.73,0,0,1-.12-1.38,4.61,4.61,0,0,0,.26-1.4c0-.17,0-.37.09-.48a.56.56,0,0,1,.21-.09,5.64,5.64,0,0,1,1.29-.12,7.63,7.63,0,0,0,0,1.5C178.06,322.84,179.71,323,180.75,323.07Z"/><path class="cls-17" d="M181,275.7a.31.31,0,0,1,0,.21c0,.08-.15.11-.25.13a3.22,3.22,0,0,1-2.26-.47.31.31,0,0,1-.16-.16.29.29,0,0,1,0-.16c.05-1,.11-1.94.17-2.91a.28.28,0,0,1,.06-.2.32.32,0,0,1,.2-.1,2.33,2.33,0,0,1,1-.05c.72.18.7.84.8,1.44C180.63,274.19,180.86,274.93,181,275.7Z"/><path class="cls-14" d="M188,270.44l.93,2a1.16,1.16,0,0,0,.26.39c.25.2.92-.12,1.21-.2a.34.34,0,0,0,.14-.05c.14-.13-.09-.72-.12-.88-.08-.33-.17-.67-.26-1a11.53,11.53,0,0,1-.41-2c0-.31-.06-.63-.4-.72a2.27,2.27,0,0,0-1.81.44c-.48.45,0,1.13.24,1.58Z"/><path class="cls-17" d="M188.68,278.93a15.66,15.66,0,0,0,.16-1.68c0-.78,0-1.55.1-2.32a1.2,1.2,0,0,1,.18-.61.65.65,0,0,1,.7-.23.85.85,0,0,1,.52.53,2.8,2.8,0,0,1,.12.76l.25,4.17a9.23,9.23,0,0,1-.06,2.29c-.26,1.24-2,.43-2.71.11a31.86,31.86,0,0,1-6.37-3.63,2.07,2.07,0,0,1-.72-.75,1.85,1.85,0,0,1,.06-1.35,1.07,1.07,0,0,1,.35-.46,1,1,0,0,1,.89,0,25,25,0,0,1,4.51,2.32c.64.4,1.29.88,2,1.22C188.65,279.18,188.66,279.05,188.68,278.93Z"/><path class="cls-14" d="M191,269.7a5.6,5.6,0,0,1,3.63.79c.27.17.62.39.88.19a.66.66,0,0,0,.19-.27,6,6,0,0,0-.85-6.23c-.35-.41-.89-.8-1.38-.57a1.26,1.26,0,0,0-.46.4,18.35,18.35,0,0,1-1.95,2.09,9.46,9.46,0,0,1-2.48,1.57c-.69.3-1.92.41-2.26,1.2a1,1,0,0,0,0,.73,1.47,1.47,0,0,0,.27.49c.55.62,1.48.14,2.12,0S190.26,269.78,191,269.7Z"/><path class="cls-17" d="M190.48,271.22l0,0a.93.93,0,0,1,.23.37c.13.32.25.65.35,1a1.38,1.38,0,0,1,.09.44c0,.55-.88,1.06-.78,1.86a5.92,5.92,0,0,0-1.21-.21.72.72,0,0,1-.21,0,.63.63,0,0,1-.08-.18,14.13,14.13,0,0,0-.4-1.68.89.89,0,0,1,0-.66c.14-.25.41-.31.62-.46a5.46,5.46,0,0,1,.7-.43A.71.71,0,0,1,190.48,271.22Z"/><path class="cls-11" d="M186.45,323.07a1,1,0,0,1,.35.07.33.33,0,0,1,.2.28.34.34,0,0,1-.07.19,1.2,1.2,0,0,1-1,.29l-4-.1a.52.52,0,0,1-.18,0,.35.35,0,0,1-.14-.13,1.7,1.7,0,0,1-.13-1.38,4.63,4.63,0,0,0,.27-1.4c0-.17,0-.37.09-.48a.45.45,0,0,1,.21-.09,5.5,5.5,0,0,1,1.28-.12,8.49,8.49,0,0,0,0,1.5C183.76,322.84,185.41,323,186.45,323.07Z"/><path class="cls-18" d="M179.82,290.9a7.31,7.31,0,0,0-2.35.58c-2,.83-.54,5.11-.12,6.64.54,1.95,1.07,3.89,1.61,5.83a49.76,49.76,0,0,1,1.55,9.71c.05.61.43,7.34.49,7.34l2.68,0c.24,0,.54-3.57.56-3.92.1-1.33.12-2.66.19-4a177.31,177.31,0,0,0-.25-18.44,4.89,4.89,0,0,0-.84-2.88c-.26-.34-1-.42-1.36-.56a4,4,0,0,0-1.68-.37Z"/><path class="cls-18" d="M174.14,291.09a15,15,0,0,0-.19,1.77c-.37,5.49.19,11,.56,16.46.27,3.89.57,7.78.79,11.68l2.69,0c.23,0,.53-3.57.56-3.92.1-1.33.12-2.66.18-4,0-2.13.23-4.27.33-6.39.13-2.51.27-5,.58-7.53.18-1.5.4-3,.57-4.48s.53-3-.09-4.28a3,3,0,0,0-1.65-1.51,5.39,5.39,0,0,0-2.08-.24,3.46,3.46,0,0,0-1.11.15C174.4,289.17,174.29,290.28,174.14,291.09Z"/><path class="cls-17" d="M181.14,272.5c3.27-2.92.63-10.91-4.07-7.59-3.31,2.33,0,10.9,4,7.66Z"/><path class="cls-11" d="M174.32,293.24c-1.53-.62-.15-3,.19-4a14.31,14.31,0,0,0,.27-6.7,6.35,6.35,0,0,1-.16-1.68c.06-.4.22-.78.27-1.19a10.92,10.92,0,0,1,.88-3.28,4.32,4.32,0,0,1,5.53-1.95,2.31,2.31,0,0,1,1.5,1.47c.12.34.25.69.38,1,.21.56.41,1.13.62,1.7a4.16,4.16,0,0,1,.3,3,10.12,10.12,0,0,0-.76,1.41,2.8,2.8,0,0,0-.08.64,28,28,0,0,0,.73,6.53,9.59,9.59,0,0,1,.12,1.86,1.09,1.09,0,0,1-.1.62,1.11,1.11,0,0,1-.65.4,20.33,20.33,0,0,1-6.28.47A8,8,0,0,1,174.32,293.24Z"/><path class="cls-17" d="M171.78,282.56a21.85,21.85,0,0,0-.62,2.48,1.13,1.13,0,0,0,.27,1.11,8.85,8.85,0,0,0,3.2,2.84c1.53.76,3.1,1.46,4.7,2.08a.73.73,0,0,0,.38.08.52.52,0,0,0,.32-.68c-.12-.39-.5-.58-.77-.85s-.68-.69-1-1c-.71-.69-1.43-1.37-2.17-2-.59-.53-1.25-1-1.82-1.57s0-1.18.21-1.65a16.53,16.53,0,0,1,1.75-3.3,4.9,4.9,0,0,0,.95-3.54,1.28,1.28,0,0,0-.43-.87,1.05,1.05,0,0,0-1.13,0,2.6,2.6,0,0,0-.83.85A21.41,21.41,0,0,0,171.78,282.56Z"/><path d="M176.65,271.36c-.07.33-.44,1.7-.93,1.42s-.27-1.27-.3-1.65a7,7,0,0,0-.18-.91c-.44-1.74-1.27-3.44-.4-5.21a3.21,3.21,0,0,1,.45-.66,5.67,5.67,0,0,1,4.19-1.35,2.22,2.22,0,0,1,1.6.66,1.39,1.39,0,0,1,.31,1,2.08,2.08,0,0,1-1.23,1.5c-.61.3-1.28.45-1.89.73a2.05,2.05,0,0,0-1.36,2A9.6,9.6,0,0,1,176.65,271.36Z"/><path class="cls-17" d="M177.37,269.83c.12.6-.06,1.15-.39,1.21s-.71-.37-.83-1,.06-1.15.4-1.22S177.26,269.22,177.37,269.83Z"/><path class="cls-17" d="M180.31,290.32l.14,0c.37.08.76-.05,1.15,0s1.2.31,1.34.77a.37.37,0,0,1,0,.23.18.18,0,0,1-.18.13.27.27,0,0,1-.14-.07c-.18,0-.84-.48-.95-.12s.85,1.31,1.15,1.4c.12,0,.25,0,.37.07a.4.4,0,0,1,.31.2.36.36,0,0,1-.06.37.86.86,0,0,1-.3.24,3.72,3.72,0,0,1-1,.44c-1.17.24-1.77-.69-2.27-1.58a10.83,10.83,0,0,0-1.31-1.7.23.23,0,0,1-.06-.12s0-.07,0-.11a2.15,2.15,0,0,1,.66-.78l.07-.05a.21.21,0,0,1,.17,0A6,6,0,0,0,180.31,290.32Z"/><rect class="cls-14" x="173.42" y="265.79" width="11.06" height="0.83" transform="translate(-56 47.83) rotate(-13.18)"/><path class="cls-14" d="M174,266.94a4.44,4.44,0,0,1,8.65-2"/><path class="cls-14" d="M196.11,266.73c.53,2.24.34,4.2-.41,4.38s-1.8-1.5-2.32-3.74-.34-4.2.42-4.37S195.59,264.49,196.11,266.73Z"/><path class="cls-11" d="M393.45,253a1.1,1.1,0,0,0-.36.07.31.31,0,0,0-.2.29.34.34,0,0,0,.07.19,1.21,1.21,0,0,0,1,.3l4.08-.11a.38.38,0,0,0,.18,0,.35.35,0,0,0,.14-.13,1.79,1.79,0,0,0,.13-1.42,4.7,4.7,0,0,1-.27-1.43c0-.17,0-.37-.09-.48a.36.36,0,0,0-.22-.09,4.81,4.81,0,0,0-1.31-.12,7.82,7.82,0,0,1,0,1.52C396.2,252.78,394.52,252.93,393.45,253Z"/><path class="cls-3" d="M400.23,220.11a7.9,7.9,0,0,1,2.4.59c2,.86.56,5.24.13,6.8l-1.65,6a51.16,51.16,0,0,0-1.59,9.92c0,.63-.44,7.51-.49,7.51l-2.75,0c-.24,0-.54-3.65-.57-4-.1-1.36-.12-2.72-.19-4.08a182.42,182.42,0,0,1,.25-18.85,5,5,0,0,1,.86-2.95c.27-.34,1-.42,1.39-.57a4.06,4.06,0,0,1,1.72-.37Z"/><path class="cls-11" d="M399.27,253a1.1,1.1,0,0,0-.36.07.31.31,0,0,0-.2.29.29.29,0,0,0,.08.19,1.18,1.18,0,0,0,1,.3l4.08-.11a.38.38,0,0,0,.18,0,.29.29,0,0,0,.14-.13,1.79,1.79,0,0,0,.13-1.42,4.7,4.7,0,0,1-.27-1.43c0-.17,0-.37-.09-.48a.36.36,0,0,0-.22-.09,4.81,4.81,0,0,0-1.31-.12,7.82,7.82,0,0,1,0,1.52C402,252.78,400.34,252.93,399.27,253Z"/><path class="cls-19" d="M399,204.53a.38.38,0,0,0,.05.21.37.37,0,0,0,.28.08,3.3,3.3,0,0,0,2.17-.93.37.37,0,0,0,.13-.2.44.44,0,0,0,0-.16l-.78-2.88a.31.31,0,0,0-.09-.19.36.36,0,0,0-.23-.06,2.22,2.22,0,0,0-1,.16c-.68.32-.52,1-.51,1.6C399,203,399,203.74,399,204.53Z"/><path class="cls-3" d="M406,220.31a17.89,17.89,0,0,1,.2,1.81c.37,5.61-.2,11.23-.58,16.83-.28,4-.59,8-.81,11.94l-2.75,0c-.24,0-.54-3.65-.57-4-.1-1.36-.12-2.72-.19-4.08,0-2.17-.23-4.36-.34-6.53-.12-2.56-.27-5.15-.58-7.7-.19-1.53-.41-3-.59-4.58s-.54-3.06.09-4.38a3.07,3.07,0,0,1,1.69-1.54,5.62,5.62,0,0,1,2.12-.25,3.35,3.35,0,0,1,1.14.16C405.77,218.35,405.88,219.48,406,220.31Z"/><path class="cls-17" d="M397.41,200.92c-3.39-2.93-.81-11.14,4-7.82,3.41,2.33.16,11.15-4,7.89Z"/><path class="cls-18" d="M396.52,205.77a17.6,17.6,0,0,0-.4,4.53c-.09,3.7-.19,7.4-.28,11.1a1.16,1.16,0,0,0,.11.64,1.06,1.06,0,0,0,.66.4,20.62,20.62,0,0,0,6.42.48,8.15,8.15,0,0,0,2.82-.42.87.87,0,0,0,.43-.3.92.92,0,0,0,.1-.57,89.87,89.87,0,0,0-.74-9.13c-.32-2.39-.19-5-1.27-7.19a4.4,4.4,0,0,0-5.65-2,3.32,3.32,0,0,0-1.61,1.19A4.69,4.69,0,0,0,396.52,205.77Z"/><path class="cls-17" d="M408,213.92a20.94,20.94,0,0,1,.19,2.6,1.56,1.56,0,0,1-.14.71,1.88,1.88,0,0,1-.33.36,9,9,0,0,1-3.72,2.29c-1.68.5-3.39.93-5.1,1.27a.78.78,0,0,1-.4,0,.53.53,0,0,1-.21-.75c.19-.36.61-.48.93-.71l1.21-.85c.84-.57,1.68-1.12,2.54-1.66.69-.43,1.44-.8,2.11-1.26.51-.35.22-1.19.08-1.69-.29-1.1-.59-2.21-.88-3.3a3.27,3.27,0,0,1-.25-1.27,1.54,1.54,0,0,1,.57-1.16C406.62,207,407.59,211,408,213.92Z"/><path class="cls-18" d="M401.74,205a5.79,5.79,0,0,0,.35,3.32c.13.32.75,3,.73,3a22.9,22.9,0,0,0,4.53-1.12.3.3,0,0,0,.25-.36,12.12,12.12,0,0,0-.86-3.13c-.47-1.51-2.38-3.86-4.18-2.84A1.79,1.79,0,0,0,401.74,205Z"/><path d="M403.26,192.51a1.8,1.8,0,0,0-.81-.52c-.63-.19-1.3-.13-1.92-.31s-1.35-.63-2-.41a2,2,0,0,0-1,.63l-.4.46a1.84,1.84,0,0,0-.37.55,1.49,1.49,0,0,0-.1.51,1.71,1.71,0,0,0,.09.78c.26.55.62.33,1.05.28a2.19,2.19,0,0,1,.89.24c.78.25,1.73,0,2.36.52a2.51,2.51,0,0,1,.63,2c0,.63,0,1.27,0,1.9,0,.35-.08.82.33.58a4.74,4.74,0,0,0,1.14-1.37,6.56,6.56,0,0,0,.79-1.59,4.62,4.62,0,0,0-.18-3.54A2.8,2.8,0,0,0,403.26,192.51Z"/><path class="cls-17" d="M401.22,198.14c-.12.62.08,1.17.42,1.23s.72-.39.83-1-.08-1.17-.42-1.23S401.33,197.52,401.22,198.14Z"/><path class="cls-17" d="M385.94,204.93c-.42-.4-1.84-2.14-2.49-1.23-.18.25-.06.6.08.89a23,23,0,0,0,2.67,4.23,44.66,44.66,0,0,0,3,3.69,2.18,2.18,0,0,0,2.54.84,11,11,0,0,0,4.06-2.41,11.79,11.79,0,0,0,1.17-1.47,3.18,3.18,0,0,0,.5-.9,1.1,1.1,0,0,0-.13-1,1.13,1.13,0,0,0-1.11-.34,3.45,3.45,0,0,0-1.09.53l-3.18,2c-.83.54-1.22-.1-1.78-.68C388.83,207.71,387.39,206.32,385.94,204.93Z"/><path class="cls-18" d="M393.29,208.73l2.8,2.8a32.45,32.45,0,0,0,2.48-2.41,5.62,5.62,0,0,0,1.26-2.16,2,2,0,0,0-.58-1.9,2.24,2.24,0,0,0-2.05-.57c-1.16.29-1.81,1.52-2.46,2.41C394.63,207,393.27,208.71,393.29,208.73Z"/><path class="cls-17" d="M381.65,199c-.34-.53-.8-1-1.38-.17a1.21,1.21,0,0,0-.18.77,4.78,4.78,0,0,0,1.05,2.89c-.32-.08-.85-.66-1.14-.31a.51.51,0,0,0,0,.52,2.14,2.14,0,0,0,1.13,1,10.79,10.79,0,0,1,2.53,1.36c.13.12.2.31.41.31a.63.63,0,0,0,.28-.12c.19-.09.4-.14.59-.23a.58.58,0,0,0,.36-.48.7.7,0,0,0-.23-.45,37.39,37.39,0,0,1-3-4.37C382,199.55,381.81,199.27,381.65,199Z"/><path class="cls-20" d="M393.79,216.16l2.25-1c.38-.17.75-.35,1.14-.51a6.81,6.81,0,0,1,1.08-.35c.41.73.69,1.5,1.05,2.25,0,0,0,.06,0,.08s0,0,0,0c-1.38.57-2.71,1.23-4.1,1.77-.14.05-.3.13-.33.27a.47.47,0,0,0,0,.26l1.87,4.41"/><path class="cls-11" d="M396.81,213.52l.2,0c.36,0,.39.27.5.55s.35.8.52,1.2a.65.65,0,0,1,.07.45.61.61,0,0,1-.36.29,62.93,62.93,0,0,1-6.84,2.74.7.7,0,0,1-.6,0,.66.66,0,0,1-.22-.27,7.48,7.48,0,0,1-.53-1.23c-.17-.54.19-.77.63-.94l2.11-.89,4.21-1.77A1.66,1.66,0,0,1,396.81,213.52Z"/><path class="cls-11" d="M396.22,220.37c.37,1,.82,2.06,1.25,3.07a.33.33,0,0,1,0,.19.45.45,0,0,1-.11.13,2.22,2.22,0,0,1-.69.34.3.3,0,0,1-.21,0,.37.37,0,0,1-.15-.19c-.46-1-1-2.07-1.4-3.15a8.45,8.45,0,0,1,1.25-.44Z"/><path class="cls-17" d="M398,220.22h-.14c-.14,0-.26,0-.39,0s-.34.08-.52.1a2.21,2.21,0,0,0-.66.21l0,0s0,.05,0,.07c.07.17.28.41.08.56a.86.86,0,0,1-.27.09,1.48,1.48,0,0,0-.78.41,1.05,1.05,0,0,0-.26.74,1.22,1.22,0,0,0,.37.82c.17.19.43.51.7.49a1.87,1.87,0,0,0,.41-.09,2.43,2.43,0,0,0,.89-.42,8,8,0,0,0,.67-.75A12,12,0,0,1,399.7,221a.19.19,0,0,0,.09-.11.4.4,0,0,0,0-.11,2.47,2.47,0,0,0-.53-.91l-.07-.06c-.05,0-.11,0-.17,0A6.92,6.92,0,0,1,398,220.22Z"/><rect class="cls-14" x="393.83" y="194.94" width="11.31" height="0.85" transform="translate(746.56 473.38) rotate(-167.36)"/><path class="cls-14" d="M404.59,196.07a4.54,4.54,0,1,0-8.86-2"/><rect x="380.79" y="253.52" width="58.68" height="19.05"/><line class="cls-16" x1="380.79" y1="271.81" x2="439.28" y2="288.76"/><line class="cls-16" x1="439.28" y1="271.81" x2="380.79" y2="288.76"/><line class="cls-16" x1="380.79" y1="289.04" x2="439.28" y2="305.99"/><line class="cls-16" x1="439.28" y1="289.04" x2="380.79" y2="305.99"/><line class="cls-16" x1="380.79" y1="305.91" x2="439.28" y2="322.87"/><line class="cls-16" x1="439.28" y1="305.91" x2="380.79" y2="322.87"/><line class="cls-16" x1="380.79" y1="238.08" x2="380.79" y2="323.44"/><line class="cls-16" x1="439.28" y1="238.08" x2="439.28" y2="323.44"/><line class="cls-16" x1="380.79" y1="238.08" x2="439.28" y2="238.08"/><rect class="cls-18" x="92.73" y="316.01" width="59.82" height="7.62"/><polygon class="cls-1" points="126.35 257.71 118.93 257.71 102.9 316.01 142.37 316.01 126.35 257.71"/><g class="cls-21"><rect class="cls-18" x="102.37" y="257.71" width="39.25" height="12.19"/><rect class="cls-18" x="102.37" y="280.95" width="39.25" height="12.19"/><rect class="cls-18" x="102.37" y="304.19" width="39.25" height="12.19"/><rect class="cls-10" x="122" y="257.71" width="36.3" height="58.68"/></g><path d="M212,190.22c-.66-3.47,1.35-5.9,4-6.4a4.67,4.67,0,0,1,3.48.76l-1.1,2a2.6,2.6,0,0,0-1.87-.44c-1.21.23-2.05,1.54-1.7,3.42s1.47,2.86,2.81,2.61a2.66,2.66,0,0,0,1.71-1.25l1.76,1.45a4.45,4.45,0,0,1-3.12,2.18C215.33,195.08,212.71,193.76,212,190.22Z"/><path d="M220.71,188.45c-.64-3.41.94-5.69,3.81-6.24s5.17,1,5.82,4.41-.92,5.79-3.79,6.33S221.36,191.86,220.71,188.45Zm6.82-1.29c-.35-1.89-1.32-2.82-2.57-2.59s-1.8,1.46-1.44,3.35,1.34,2.91,2.58,2.67S227.89,189,227.53,187.16Z"/><path d="M231.21,181.14l2.93-.55,2.37,3.94c.3.54.58,1.15.88,1.72l.07,0c.07-.64.11-1.3.19-1.92l.7-4.52,2.93-.55,2,10.36-2.48.47-.58-3.06a36.94,36.94,0,0,1-.35-3.77l-.07,0-.39,2.64-.62,3.67-1.47.28-1.92-3.19-1.3-2.32H234a37.68,37.68,0,0,1,1.05,3.63l.57,3.06-2.45.46Z"/><path d="M243.57,178.8l2.74-.52,2,10.36-2.74.52Z"/><path d="M248.61,177.85l2.8-.53,3.17,4.19,1.43,2.14h.06c-.34-1.1-.85-2.62-1.1-3.89l-.56-3,2.61-.49,2,10.36-2.8.53L253,182.94l-1.42-2.12h-.07a36.79,36.79,0,0,1,1.1,3.89l.57,3-2.61.49Z"/><path d="M259.86,181.17a5.17,5.17,0,0,1,4.13-6.43,4.78,4.78,0,0,1,3.64.73l-1.1,2a2.63,2.63,0,0,0-2-.42c-1.41.27-2.25,1.58-1.89,3.46s1.43,2.87,3.28,2.52a1.67,1.67,0,0,0,.76-.34l-.27-1.44-1.53.29-.42-2.23,3.95-.75.93,4.94a5.31,5.31,0,0,1-3.26,1.94A5,5,0,0,1,259.86,181.17Z"/><path d="M273.87,182.46l1.2-2.17a4.27,4.27,0,0,0,2.62.54c.83-.16,1.12-.49,1-1s-.65-.55-1.6-.73l-1.39-.3a3.11,3.11,0,0,1-2.63-2.49c-.34-1.77,1-3.52,3.24-3.95a5.09,5.09,0,0,1,3.71.74l-1,2a3.41,3.41,0,0,0-2.22-.36c-.67.13-1,.44-.95.91s.72.55,1.73.74l1.35.26a2.89,2.89,0,0,1,2.56,2.45c.33,1.75-.84,3.59-3.42,4.08A6.1,6.1,0,0,1,273.87,182.46Z"/><path d="M282.3,176.79c-.65-3.41.94-5.69,3.8-6.23s5.18,1,5.83,4.41-.92,5.78-3.79,6.33S283,180.2,282.3,176.79Zm6.82-1.29c-.36-1.88-1.33-2.82-2.57-2.59s-1.8,1.47-1.45,3.35,1.35,2.91,2.59,2.68S289.48,177.38,289.12,175.5Z"/><path d="M293.32,174.7c-.64-3.41.94-5.69,3.81-6.23s5.18,1,5.82,4.41-.92,5.79-3.79,6.33S294,178.11,293.32,174.7Zm6.82-1.29c-.35-1.88-1.32-2.82-2.56-2.58s-1.81,1.46-1.45,3.34,1.34,2.92,2.59,2.68S300.5,175.29,300.14,173.41Z"/><path d="M303.82,167.4l2.81-.53,3.17,4.19,1.43,2.14.06,0a37.31,37.31,0,0,1-1.1-3.88l-.57-3,2.62-.49,2,10.36-2.81.53-3.17-4.21-1.43-2.12h-.06a39.35,39.35,0,0,1,1.1,3.89l.57,3-2.62.5Z"/></svg>